<?xml version="1.0" encoding="UTF-8"?>
<svg version="1.1" xmlns="http://www.w3.org/2000/svg" width="512" height="512">
<path d="M0 0 C0.68902405 -0.00067474 1.3780481 -0.00134949 2.08795166 -0.00204468 C13.34516717 0.01542685 24.20275124 0.64423191 35.1875 3.25 C35.89438965 3.41628906 36.6012793 3.58257812 37.32958984 3.75390625 C64.12242407 10.32286447 87.25461202 24.45318336 107.1875 43.25 C108.19876953 44.18199219 108.19876953 44.18199219 109.23046875 45.1328125 C130.61685027 65.53738409 145.84115821 96.13304362 150.1875 125.25 C150.23182533 127.58291228 150.24346033 129.91733781 150.1875 132.25 C150.86103516 132.0233667 151.53457031 131.7967334 152.22851562 131.56323242 C165.09854154 127.26116088 177.70788626 123.07881309 191.1875 121.25 C192.09371094 121.12109375 192.99992187 120.9921875 193.93359375 120.859375 C232.87012557 116.3553013 272.99508192 127.42987742 304.0625 151.25 C318.3668122 162.65059804 330.43507048 175.78938592 340.1875 191.25 C340.57760254 191.86472168 340.96770508 192.47944336 341.36962891 193.11279297 C346.76531919 201.74448433 350.69599727 210.72676949 354.1875 220.25 C354.55617188 221.18714844 354.92484375 222.12429688 355.3046875 223.08984375 C368.08284569 257.61068195 365.12776658 300.00533602 350.1875 333.25 C332.90321208 370.34759094 302.30556776 399.71812735 263.7734375 413.90625 C254.39143681 417.22845696 245.02199331 419.69305858 235.1875 421.25 C234.03765625 421.43304688 232.8878125 421.61609375 231.703125 421.8046875 C194.2502453 426.26079935 154.7095379 417.95541844 124.1875 395.25 C123.64319336 394.85087402 123.09888672 394.45174805 122.53808594 394.04052734 C91.33953601 371.02390699 70.83437658 338.36810124 62.66796875 300.46875 C62.15303447 297.01910898 62.10394781 293.73280693 62.1875 290.25 C61.65608398 290.44110352 61.12466797 290.63220703 60.57714844 290.82910156 C44.32356899 296.61356603 27.56306153 301.69249535 10.1875 302.25 C9.54619141 302.27578125 8.90488281 302.3015625 8.24414062 302.328125 C-33.27968696 303.82582843 -72.60376875 289.62400021 -103.046875 261.3671875 C-112.66968978 252.19059844 -120.72186585 242.49084598 -127.8125 231.25 C-128.39765381 230.32791748 -128.39765381 230.32791748 -128.99462891 229.38720703 C-134.39031919 220.75551567 -138.32099727 211.77323051 -141.8125 202.25 C-142.18117187 201.31285156 -142.54984375 200.37570313 -142.9296875 199.41015625 C-148.80510382 183.53742301 -150.19718216 167.21052157 -150.25 150.4375 C-150.25608276 149.71086151 -150.26216553 148.98422302 -150.26843262 148.23556519 C-150.34675031 133.93834745 -148.3947928 120.07601683 -144.1875 106.375 C-143.93589111 105.55112793 -143.68428223 104.72725586 -143.42504883 103.87841797 C-137.44070205 85.14279549 -127.57524155 68.16459914 -114.8125 53.25 C-114.12671875 52.44175781 -113.4409375 51.63351563 -112.734375 50.80078125 C-84.12550541 18.02407275 -43.35013213 0.03815008 0 0 Z " fill="#FBC610" transform="translate(149.8125,44.75)"/>
<path d="M0 0 C41.65662828 0 79.03388064 16.16424732 108.625 45.125 C116.51732334 53.04562075 123.04258793 61.55566116 129 71 C129.39010254 71.61472168 129.78020508 72.22944336 130.18212891 72.86279297 C135.57781919 81.49448433 139.50849727 90.47676949 143 100 C143.36867188 100.93714844 143.73734375 101.87429688 144.1171875 102.83984375 C156.89534569 137.36068195 153.94026658 179.75533602 139 213 C121.71571208 250.09759094 91.11806776 279.46812735 52.5859375 293.65625 C43.1875123 296.98427295 33.83691922 299.37866276 24 301 C22.700625 301.226875 21.40125 301.45375 20.0625 301.6875 C17.35782087 301.94900123 14.68134669 302.04364876 11.96484375 302.0546875 C11.29960693 302.05839355 10.63437012 302.06209961 9.94897461 302.06591797 C6.63258018 302.06128937 3.31628251 302.02763569 0 302 C0 292.1 0 282.2 0 272 C4.95 271.67 9.9 271.34 15 271 C15 255.49 15 239.98 15 224 C18.63 222.02 22.26 220.04 26 218 C34.82909488 211.12018581 41.05864782 202.92705231 44 192 C44.42759145 188.53083574 44.47711581 185.11747906 44.4375 181.625 C44.42992676 180.69397461 44.42235352 179.76294922 44.41455078 178.80371094 C44.25464156 172.157557 43.51451302 166.75898396 40 161 C39.57589844 160.23945313 39.15179688 159.47890625 38.71484375 158.6953125 C33.53474273 150.12433755 26.25220331 143.79866884 17 140 C16.25105469 139.65582031 15.50210937 139.31164062 14.73046875 138.95703125 C10.18662315 137.36441012 5.45957535 137.1557379 0.69140625 136.66015625 C-5.0688491 135.63001535 -9.39320707 133.52242964 -13.01953125 128.8046875 C-14.89532361 125.35203383 -15.23039967 121.88188538 -15 118 C-13.27222852 112.71505194 -10.32853311 110.22337572 -6 107 C-3.53838983 105.76919491 -1.93503007 105.87956023 0.81689453 105.88647461 C1.81778107 105.88655014 2.8186676 105.88662567 3.84988403 105.88670349 C4.93325043 105.89186478 6.01661682 105.89702606 7.1328125 105.90234375 C8.23978485 105.9037587 9.3467572 105.90517365 10.48727417 105.90663147 C14.03320993 105.91224228 17.57908323 105.92479663 21.125 105.9375 C23.52473867 105.94251361 25.92447833 105.94707675 28.32421875 105.95117188 C34.21618943 105.9613656 40.10802455 105.98093897 46 106 C46 96.1 46 86.2 46 76 C35.77 76 25.54 76 15 76 C15 61.15 15 46.3 15 31 C10.05 31 5.1 31 0 31 C0 20.77 0 10.54 0 0 Z " fill="#FC8F01" transform="translate(361,165)"/>
<path d="M0 0 C18.58967131 0 18.58967131 0 25 1.625 C25.74290283 1.80321289 26.48580566 1.98142578 27.2512207 2.16503906 C45.63844961 6.77990361 62.36419706 14.91213036 77 27 C77.98613281 27.80953125 78.97226563 28.6190625 79.98828125 29.453125 C102.54901911 48.99991214 116.70357694 77.47935416 120 107 C120.15984375 108.08023438 120.3196875 109.16046875 120.484375 110.2734375 C120.92046664 115.36544868 121.03457227 118.66026613 117.828125 122.8125 C114.98971805 125.38431624 112.07272563 127.71483884 109 130 C92.78760463 143.13409245 81.55917206 161.19811626 73 180 C72.45472656 181.18980469 71.90945312 182.37960937 71.34765625 183.60546875 C63.21538699 202.5807637 60.82176197 221.62927854 60.9375 242.0625 C60.94252497 243.61132668 60.94708612 245.16015493 60.95117188 246.70898438 C60.96209862 250.47269576 60.97930825 254.23633015 61 258 C54.25341995 260.89816878 47.56794384 263.6788786 40.5 265.6875 C39.7786084 265.89536133 39.0572168 266.10322266 38.31396484 266.31738281 C25.68195967 269.8607459 13.08677115 271 0 271 C0 245.92 0 220.84 0 195 C4.95 195 9.9 195 15 195 C15 185.1 15 175.2 15 165 C24.9 165 34.8 165 45 165 C45 155.1 45 145.2 45 135 C35.1 135 25.2 135 15 135 C12.54508929 112.47304687 12.54508929 112.47304687 18.65625 104.28076172 C23.52206002 98.7195177 28.97703542 93.8308029 34.5 88.9375 C36.38458276 87.17858852 38.26355111 85.4136413 40.13671875 83.64257812 C44.6954518 79.35668394 49.3176758 75.1503077 54 71 C52.43619035 67.70628088 50.75283705 65.50688351 48.15625 62.92578125 C47.40472656 62.17619141 46.65320313 61.42660156 45.87890625 60.65429688 C45.09386719 59.88150391 44.30882812 59.10871094 43.5 58.3125 C42.71496094 57.52810547 41.92992187 56.74371094 41.12109375 55.93554688 C37.40551891 52.00663013 37.40551891 52.00663013 33 49 C32.72893433 49.59572815 32.45786865 50.1914563 32.17858887 50.80523682 C31.01596143 52.97027669 29.86848412 54.3848637 28.14257812 56.11621094 C27.56858276 56.69651062 26.9945874 57.2768103 26.40319824 57.87469482 C25.78545532 58.48838928 25.1677124 59.10208374 24.53125 59.734375 C23.89513794 60.37240051 23.25902588 61.01042603 22.6036377 61.66778564 C21.26116613 63.01161574 19.91617539 64.35293329 18.56884766 65.69189453 C16.50057835 67.74942465 14.44322672 69.81744049 12.38671875 71.88671875 C11.08137029 73.19074625 9.7754019 74.49415356 8.46875 75.796875 C7.85100708 76.41866638 7.23326416 77.04045776 6.59680176 77.68109131 C2.22993073 82 2.22993073 82 0 82 C0 54.94 0 27.88 0 0 Z " fill="#FC8F01" transform="translate(151,76)"/>
<path d="M0 0 C0 15.51 0 31.02 0 47 C-3.63 48.98 -7.26 50.96 -11 53 C-20.46241545 59.95765842 -27.09298178 70.28545952 -29 82 C-30.26012507 95.35732569 -27.12107926 107.24456618 -19 118 C-10.36113805 127.61781848 -0.30115 132.12248604 12.33129883 133.32275391 C19.25155533 134.01284863 23.60480391 135.48504411 28.5 140.625 C30.53041923 145.19344328 30.68472024 149.07496408 30 154 C28.37776841 157.73113266 26.05532814 160.32658788 23 163 C20.04601242 163.98466253 18.14750978 164.12127836 15.06958008 164.11352539 C14.06876907 164.11344986 13.06795807 164.11337433 12.03681946 164.11329651 C10.95861435 164.10813522 9.88040924 164.10297394 8.76953125 164.09765625 C7.66397385 164.0962413 6.55841644 164.09482635 5.4193573 164.09336853 C1.88371083 164.08776514 -1.65187262 164.07521204 -5.1875 164.0625 C-7.58268138 164.05748544 -9.97786375 164.05292246 -12.37304688 164.04882812 C-18.24874181 164.03864494 -24.12430025 164.01907007 -30 164 C-30 174.23 -30 184.46 -30 195 C-20.1 195 -10.2 195 0 195 C0 209.52 0 224.04 0 239 C-24.33811414 234.70503868 -44.13753723 226.82179254 -63 211 C-63.81984375 210.33226562 -64.6396875 209.66453125 -65.484375 208.9765625 C-80.47863027 196.30900201 -90.96847568 179.11668819 -98 161 C-98.39960938 160.01902344 -98.79921875 159.03804687 -99.2109375 158.02734375 C-109.57418608 130.32708156 -107.08476759 96.43399485 -94.97460938 69.73974609 C-88.51526348 56.27695625 -80.23260748 44.86980282 -70 34 C-69.19175781 33.09507812 -69.19175781 33.09507812 -68.3671875 32.171875 C-52.33865397 14.93516056 -23.79142152 0 0 0 Z " fill="#FBBD00" transform="translate(346,197)"/>
<path d="M0 0 C41.65662828 0 79.03388064 16.16424732 108.625 45.125 C116.51732334 53.04562075 123.04258793 61.55566116 129 71 C129.39010254 71.61472168 129.78020508 72.22944336 130.18212891 72.86279297 C135.57781919 81.49448433 139.50849727 90.47676949 143 100 C143.36867188 100.93714844 143.73734375 101.87429688 144.1171875 102.83984375 C156.89534569 137.36068195 153.94026658 179.75533602 139 213 C121.71571208 250.09759094 91.11806776 279.46812735 52.5859375 293.65625 C43.1875123 296.98427295 33.83691922 299.37866276 24 301 C22.700625 301.226875 21.40125 301.45375 20.0625 301.6875 C17.35782087 301.94900123 14.68134669 302.04364876 11.96484375 302.0546875 C11.29960693 302.05839355 10.63437012 302.06209961 9.94897461 302.06591797 C6.63258018 302.06128937 3.31628251 302.02763569 0 302 C0 292.1 0 282.2 0 272 C4.95 271.67 9.9 271.34 15 271 C15 255.49 15 239.98 15 224 C15.33 224 15.66 224 16 224 C16 239.18 16 254.36 16 270 C49.03373575 263.99386623 77.84480147 249.46864579 97.8125 221.6875 C99.25481848 219.47308538 100.64965499 217.26803099 102 215 C102.37995117 214.36223633 102.75990234 213.72447266 103.15136719 213.06738281 C119.75939739 184.62972517 124.22712672 151.93094924 116.49609375 119.91308594 C108.24008457 89.35056305 87.20106568 62.81045548 60 47 C45.99467997 39.27579335 31.64203749 35.1284075 16 32 C16 46.52 16 61.04 16 76 C15.67 76 15.34 76 15 76 C15 61.15 15 46.3 15 31 C10.05 31 5.1 31 0 31 C0 20.77 0 10.54 0 0 Z " fill="#FABC00" transform="translate(361,165)"/>
<path d="M0 0 C2.475 0.020625 4.95 0.04125 7.5 0.0625 C7.5 9.9625 7.5 19.8625 7.5 30.0625 C3.725625 30.454375 -0.04875 30.84625 -3.9375 31.25 C-31.99050778 34.50581222 -56.01375271 45.43557517 -76.5 65.0625 C-77.24765625 65.74699219 -77.9953125 66.43148437 -78.765625 67.13671875 C-100.32843352 87.53091352 -111.84940726 117.717656 -112.78369141 147.04223633 C-113.26518646 181.85269645 -100.66712849 212.13219904 -76.5 237.0625 C-60.15474493 253.47038057 -37.78515315 264.5801854 -15.125 268.75 C-14.15433594 268.92946167 -14.15433594 268.92946167 -13.1640625 269.11254883 C-6.25592817 270.27542935 0.41829676 270.55666405 7.5 271.0625 C7.5 281.2925 7.5 291.5225 7.5 302.0625 C-34.15662828 302.0625 -71.53388064 285.89825268 -101.125 256.9375 C-109.01732334 249.01687925 -115.54258793 240.50683884 -121.5 231.0625 C-122.08515381 230.14041748 -122.08515381 230.14041748 -122.68212891 229.19970703 C-128.07781919 220.56801567 -132.00849727 211.58573051 -135.5 202.0625 C-135.86867187 201.12535156 -136.23734375 200.18820313 -136.6171875 199.22265625 C-142.49260382 183.34992301 -143.88468216 167.02302157 -143.9375 150.25 C-143.94358276 149.52336151 -143.94966553 148.79672302 -143.95593262 148.04806519 C-144.03425031 133.75084745 -142.0822928 119.88851683 -137.875 106.1875 C-137.62339111 105.36362793 -137.37178223 104.53975586 -137.11254883 103.69091797 C-131.12820205 84.95529549 -121.26274155 67.97709914 -108.5 53.0625 C-107.81421875 52.25425781 -107.1284375 51.44601563 -106.421875 50.61328125 C-80.2858075 20.66962119 -40.34202513 -0.4816831 0 0 Z " fill="#FDD72D" transform="translate(143.5,44.9375)"/>
<path d="M0 0 C8.53570291 2.18351064 16.84438351 4.89234469 25.1640625 7.78125 C25.81468029 8.00643814 26.46529808 8.23162628 27.13563156 8.46363831 C30.56173857 9.64958117 33.98633974 10.83975204 37.40966797 12.03369141 C40.94235908 13.26485848 44.47991182 14.48140095 48.01871681 15.69486237 C50.74944054 16.63408679 53.47644826 17.58374645 56.20252609 18.53636169 C57.50655244 18.99001238 58.81195903 19.43971546 60.11873245 19.88539124 C61.93405513 20.50560576 63.74380744 21.14205356 65.55322266 21.77929688 C66.58371735 22.13664917 67.61421204 22.49400146 68.67593384 22.86218262 C69.82634659 23.42540222 69.82634659 23.42540222 71 24 C72.80538434 29.41615301 69.62522703 34.89565844 67.8125 40.125 C67.41224609 41.34316406 67.01199219 42.56132812 66.59960938 43.81640625 C66.0030957 45.55083984 66.0030957 45.55083984 65.39453125 47.3203125 C65.03206299 48.38523926 64.66959473 49.45016602 64.29614258 50.54736328 C63 53 63 53 61.06616211 53.91723633 C57.71806828 54.05134998 54.81945174 52.75721547 51.75 51.5625 C50.77546875 51.19801758 50.77546875 51.19801758 49.78125 50.82617188 C48.18383183 50.22714006 46.59139406 49.61485679 45 49 C44.67 49.33 44.34 49.66 44 50 C50.36544833 59.98312178 57.17306003 69.12222086 65 78 C65.6496875 78.77214844 66.299375 79.54429687 66.96875 80.33984375 C70.9492567 85.05312555 75.27419641 89.04559046 80 93 C80.87398438 93.76183594 81.74796875 94.52367187 82.6484375 95.30859375 C113.97644115 122.22715989 156.79321138 141.10517872 198.53125 141.16796875 C199.72252502 141.17296135 199.72252502 141.17296135 200.93786621 141.17805481 C202.61189196 141.18308804 204.28592763 141.18546426 205.95996094 141.18530273 C208.46567266 141.18747031 210.97092948 141.20561235 213.4765625 141.22460938 C223.80555783 141.2594013 233.78966079 140.56325891 244 139 C244.84291786 143.03972867 245.67262865 147.08206109 246.5 151.125 C246.73847656 152.26710938 246.97695313 153.40921875 247.22265625 154.5859375 C247.44824219 155.69453125 247.67382812 156.803125 247.90625 157.9453125 C248.11572266 158.96125488 248.32519531 159.97719727 248.54101562 161.02392578 C249.00988982 164.06412599 249.0800787 166.92898194 249 170 C247.52196796 170.31782317 246.04248288 170.62888865 244.5625 170.9375 C243.73878906 171.11152344 242.91507812 171.28554688 242.06640625 171.46484375 C234.94585808 172.70753814 227.89225849 173.16372706 220.671875 173.203125 C219.80884262 173.21013931 218.94581024 173.21715363 218.05662537 173.22438049 C215.28769657 173.24178751 212.5189815 173.24823244 209.75 173.25 C208.33238876 173.25101212 208.33238876 173.25101212 206.88613892 173.25204468 C193.36327986 173.236676 180.25678451 172.90160242 167 170 C165.74630615 169.74259033 165.74630615 169.74259033 164.46728516 169.47998047 C158.2528482 168.19149521 152.1189217 166.68316493 146 165 C145.17628906 164.77393066 144.35257813 164.54786133 143.50390625 164.31494141 C120.7533342 157.85906225 98.12793551 146.8923615 79 133 C78.42975098 132.58830566 77.85950195 132.17661133 77.27197266 131.75244141 C52.71613947 113.83753855 31.6877965 92.14632751 16 66 C14.02 72.27 12.04 78.54 10 85 C-0.16056512 82.68702583 -10.09230149 80.23938664 -20 77 C-18.45258624 68.32624084 -16.17134335 59.86289027 -13.8671875 51.3671875 C-13.46619996 49.87939918 -13.06549886 48.39153364 -12.66506958 46.90359497 C-11.61907735 43.01985744 -10.56924089 39.13716957 -9.51855469 35.25469971 C-8.44360463 31.27981087 -7.37235666 27.30392466 -6.30078125 23.328125 C-4.20410877 15.55111173 -2.10336727 7.77520526 0 0 Z " fill="#7BE2F8" transform="translate(20,339)"/>
<path d="M0 0 C0.8628511 -0.00705963 1.72570221 -0.01411926 2.61470032 -0.02139282 C38.03028582 -0.24546275 38.03028582 -0.24546275 53.671875 3.203125 C55.13584717 3.50911621 55.13584717 3.50911621 56.62939453 3.82128906 C76.29856879 7.98225064 94.71914886 14.16964585 112.671875 23.203125 C113.36555176 23.55133301 114.05922852 23.89954102 114.77392578 24.25830078 C151.6699156 42.93323367 183.35150816 71.66918027 204.671875 107.203125 C206.651875 100.933125 208.631875 94.663125 210.671875 88.203125 C220.83244012 90.51609917 230.76417649 92.96373836 240.671875 96.203125 C239.12446124 104.87688416 236.84321835 113.34023473 234.5390625 121.8359375 C234.13807496 123.32372582 233.73737386 124.81159136 233.33694458 126.29953003 C232.29095235 130.18326756 231.24111589 134.06595543 230.19042969 137.94842529 C229.11547963 141.92331413 228.04423166 145.89920034 226.97265625 149.875 C224.87598377 157.65201327 222.77524227 165.42791974 220.671875 173.203125 C212.13617209 171.01961436 203.82749149 168.31078031 195.5078125 165.421875 C194.53188581 165.08409279 194.53188581 165.08409279 193.53624344 164.73948669 C190.11013643 163.55354383 186.68553526 162.36337296 183.26220703 161.16943359 C179.72951592 159.93826652 176.19196318 158.72172405 172.65315819 157.50826263 C169.92243446 156.56903821 167.19542674 155.61937855 164.46934891 154.66676331 C163.16532256 154.21311262 161.85991597 153.76340954 160.55314255 153.31773376 C158.73781987 152.69751924 156.92806756 152.06107144 155.11865234 151.42382812 C154.08815765 151.06647583 153.05766296 150.70912354 151.99594116 150.34094238 C151.22899933 149.96546265 150.4620575 149.58998291 149.671875 149.203125 C147.86649066 143.78697199 151.04664797 138.30746656 152.859375 133.078125 C153.25962891 131.85996094 153.65988281 130.64179688 154.07226562 129.38671875 C154.46994141 128.23042969 154.86761719 127.07414062 155.27734375 125.8828125 C155.63981201 124.81788574 156.00228027 123.75295898 156.37573242 122.65576172 C157.671875 120.203125 157.671875 120.203125 159.57836914 119.28588867 C161.84783677 119.19616861 163.40985322 119.48745651 165.5625 120.19921875 C166.62597656 120.54243164 166.62597656 120.54243164 167.7109375 120.89257812 C168.80535156 121.26286133 168.80535156 121.26286133 169.921875 121.640625 C170.66695312 121.88361328 171.41203125 122.12660156 172.1796875 122.37695312 C174.01345735 122.97645481 175.84309504 123.58856987 177.671875 124.203125 C170.88755535 113.98071686 163.77643374 104.41112132 155.671875 95.203125 C155.02347656 94.43226562 154.37507812 93.66140625 153.70703125 92.8671875 C149.72446166 88.15312554 145.39921521 84.15882033 140.671875 80.203125 C139.79789063 79.44128906 138.92390625 78.67945312 138.0234375 77.89453125 C106.69543385 50.97596511 63.87866362 32.09794628 22.140625 32.03515625 C21.34644165 32.03182785 20.5522583 32.02849945 19.73400879 32.02507019 C18.05998304 32.02003696 16.38594737 32.01766074 14.71191406 32.01782227 C12.20620234 32.01565469 9.70094552 31.99751265 7.1953125 31.97851562 C-3.13368283 31.9437237 -13.11778579 32.63986609 -23.328125 34.203125 C-24.17104286 30.16339633 -25.00075365 26.12106391 -25.828125 22.078125 C-26.06660156 20.93601562 -26.30507812 19.79390625 -26.55078125 18.6171875 C-26.77636719 17.50859375 -27.00195312 16.4 -27.234375 15.2578125 C-27.44384766 14.24187012 -27.65332031 13.22592773 -27.86914062 12.17919922 C-28.33801482 9.13899901 -28.4082037 6.27414306 -28.328125 3.203125 C-26.85009296 2.88530183 -25.37060788 2.57423635 -23.890625 2.265625 C-23.06691406 2.09160156 -22.24320313 1.91757812 -21.39453125 1.73828125 C-14.27397305 0.49558511 -7.22038976 0.03944409 0 0 Z " fill="#46C8E4" transform="translate(271.328125,-0.203125)"/>
<path d="M0 0 C1.20970459 0.00523682 2.41940918 0.01047363 3.66577148 0.01586914 C4.84083252 0.0183667 6.01589355 0.02086426 7.2265625 0.0234375 C8.7314624 0.0325415 10.2363623 0.04164551 11.78686523 0.05102539 C16.55124023 0.07165039 21.31561523 0.09227539 26.22436523 0.11352539 C26.22436523 14.96352539 26.22436523 29.81352539 26.22436523 45.11352539 C36.45436523 45.11352539 46.68436523 45.11352539 57.22436523 45.11352539 C57.22436523 55.01352539 57.22436523 64.91352539 57.22436523 75.11352539 C51.9147168 75.15219727 51.9147168 75.15219727 46.49780273 75.19165039 C43.06233837 75.23008361 39.62702344 75.27523995 36.19165039 75.32104492 C33.80760861 75.34923734 31.42347365 75.37046043 29.03930664 75.38452148 C25.60832071 75.40597409 22.17845299 75.45263903 18.74780273 75.50415039 C17.15372086 75.50599335 17.15372086 75.50599335 15.5274353 75.50787354 C8.20583885 75.65216105 4.78420316 76.79919353 -0.58813477 81.80102539 C-2.45990615 85.44605388 -2.88907102 89.03690989 -2.77563477 93.11352539 C-1.1722748 97.83452974 0.89327721 100.63861795 5.22436523 103.11352539 C9.19248851 104.01693098 13.19697253 104.54569456 17.22436523 105.11352539 C31.08833741 107.72207765 41.80314297 114.86723498 50.22436523 126.11352539 C56.95155364 137.45316723 58.37210882 150.30928309 55.79223633 163.28735352 C52.26599613 175.55953624 43.31432939 185.00256617 32.35327148 191.09008789 C30.22436523 192.11352539 30.22436523 192.11352539 27.22436523 193.11352539 C26.89436523 208.62352539 26.56436523 224.13352539 26.22436523 240.11352539 C16.32436523 240.11352539 6.42436523 240.11352539 -3.77563477 240.11352539 C-3.77563477 225.59352539 -3.77563477 211.07352539 -3.77563477 196.11352539 C-13.67563477 196.11352539 -23.57563477 196.11352539 -33.77563477 196.11352539 C-33.77563477 185.88352539 -33.77563477 175.65352539 -33.77563477 165.11352539 C-30.22426758 165.07614258 -26.67290039 165.03875977 -23.01391602 165.00024414 C-19.57187767 164.95402431 -16.12994788 164.90279217 -12.68798828 164.85107422 C-10.29710494 164.81783372 -7.90614328 164.7897991 -5.51513672 164.76708984 C-2.07689057 164.73352856 1.36063852 164.68121015 4.79858398 164.62524414 C6.40040779 164.61565926 6.40040779 164.61565926 8.03459167 164.60588074 C14.39977886 164.4799703 18.05525744 163.8299035 22.97436523 159.61352539 C25.86785127 156.14134215 25.56030905 151.9092714 25.49780273 147.62133789 C25.08385847 143.82487764 23.83717565 141.86032608 21.22436523 139.11352539 C16.21315416 136.5708912 12.19615168 135.7233602 6.53686523 135.30102539 C-5.87418189 134.02717688 -15.3994335 128.34230428 -23.77563477 119.11352539 C-31.85682309 108.50696572 -35.22893779 96.3430777 -33.77563477 83.11352539 C-31.13530865 70.44308468 -24.22754254 59.71979389 -13.77563477 52.11352539 C-7.15807103 48.11352539 -7.15807103 48.11352539 -3.77563477 48.11352539 C-3.77785538 47.52692642 -3.78007599 46.94032745 -3.78236389 46.33595276 C-3.80441686 40.25327155 -3.81954141 34.17060162 -3.83056641 28.08789062 C-3.83560802 25.81509948 -3.84244114 23.54231159 -3.85107422 21.26953125 C-3.86314737 18.01048988 -3.86886464 14.75149122 -3.87329102 11.49243164 C-3.8784523 10.4695253 -3.88361359 9.44661896 -3.88893127 8.39271545 C-3.88904457 6.98136574 -3.88904457 6.98136574 -3.88916016 5.54150391 C-3.89138077 4.70877457 -3.89360138 3.87604523 -3.89588928 3.01808167 C-3.70058148 -0.07514682 -3.12993932 0.12801669 0 0 Z " fill="#F4EAED" transform="translate(349.775634765625,195.886474609375)"/>
<path d="M0 0 C2.95265112 1.32994383 5.02350216 2.77779316 7.29980469 5.07275391 C7.92014587 5.69324615 8.54048706 6.3137384 9.17962646 6.95303345 C9.83706848 7.62079803 10.4945105 8.28856262 11.171875 8.9765625 C12.1955014 10.00443375 12.1955014 10.00443375 13.23980713 11.05307007 C15.41461598 13.23905845 17.58236072 15.43190429 19.75 17.625 C21.2247999 19.10983255 22.70005506 20.59421306 24.17578125 22.078125 C27.78915448 25.7135291 31.39620853 29.35509824 35 33 C37.84182471 31.70763512 39.89915737 30.34999508 42.1003418 28.14257812 C42.67741379 27.56858276 43.25448578 26.9945874 43.8490448 26.40319824 C44.4596022 25.78545532 45.07015961 25.1677124 45.69921875 24.53125 C46.33487259 23.89513794 46.97052643 23.25902588 47.6254425 22.6036377 C48.96499114 21.26107333 50.30211386 19.91608471 51.63696289 18.56884766 C53.6851817 16.502339 55.74132332 14.44397788 57.79882812 12.38671875 C59.09943189 11.08120077 60.39957806 9.77522672 61.69921875 8.46875 C62.31584885 7.85100708 62.93247894 7.23326416 63.5677948 6.59680176 C66.65685342 3.58087203 66.65685342 3.58087203 69 0 C72.46629835 1.48653506 74.69022036 3.45722351 77.328125 6.1328125 C78.12734375 6.93847656 78.9265625 7.74414062 79.75 8.57421875 C80.575 9.41597656 81.4 10.25773438 82.25 11.125 C83.09046875 11.97449219 83.9309375 12.82398438 84.796875 13.69921875 C86.86915683 15.79504923 88.93662393 17.89540713 91 20 C89.60467704 23.21417162 88.01165129 25.1442185 85.39233398 27.45385742 C84.65494492 28.11363083 83.91755585 28.77340424 83.15782166 29.45317078 C82.36195145 30.16342911 81.56608124 30.87368744 80.74609375 31.60546875 C79.06758685 33.16107799 77.39256745 34.72045708 75.72070312 36.28320312 C73.09963771 38.73312279 70.47018116 41.15881451 67.77368164 43.52563477 C58.52200744 51.68362493 51.42567177 58.22294531 50.3598938 70.99868774 C50.34351543 76.00364852 50.71056741 81.00338821 51 86 C60.9 86 70.8 86 81 86 C81 95.9 81 105.8 81 116 C71.1 116 61.2 116 51 116 C51 125.9 51 135.8 51 146 C41.1 146 31.2 146 21 146 C21 136.1 21 126.2 21 116 C11.1 116 1.2 116 -9 116 C-9 106.1 -9 96.2 -9 86 C0.9 86 10.8 86 21 86 C22.48709551 70.17813168 22.48709551 70.17813168 16.16748047 56.26953125 C11.14172898 50.60304219 5.56841281 45.55249512 -0.0625 40.5 C-1.9902635 38.68784718 -3.91284548 36.87016569 -5.83007812 35.046875 C-10.49558476 30.63242299 -15.22030484 26.29038412 -20 22 C-18.38223883 18.57517293 -16.57656756 16.34309478 -13.8671875 13.671875 C-12.65869141 12.47304687 -12.65869141 12.47304687 -11.42578125 11.25 C-10.58402344 10.425 -9.74226563 9.6 -8.875 8.75 C-8.02550781 7.90953125 -7.17601563 7.0690625 -6.30078125 6.203125 C-4.20495077 4.13084317 -2.10459287 2.06337607 0 0 Z " fill="#FCF2F1" transform="translate(115,125)"/>
<path d="M0 0 C3.46629835 1.48653506 5.69022036 3.45722351 8.328125 6.1328125 C9.12734375 6.93847656 9.9265625 7.74414062 10.75 8.57421875 C11.575 9.41597656 12.4 10.25773438 13.25 11.125 C14.09046875 11.97449219 14.9309375 12.82398438 15.796875 13.69921875 C17.86915683 15.79504923 19.93662393 17.89540713 22 20 C20.60467704 23.21417162 19.01165129 25.1442185 16.39233398 27.45385742 C15.65494492 28.11363083 14.91755585 28.77340424 14.15782166 29.45317078 C13.36195145 30.16342911 12.56608124 30.87368744 11.74609375 31.60546875 C10.06758685 33.16107799 8.39256745 34.72045708 6.72070312 36.28320312 C4.09963771 38.73312279 1.47018116 41.15881451 -1.22631836 43.52563477 C-10.47799256 51.68362493 -17.57432823 58.22294531 -18.6401062 70.99868774 C-18.65648457 76.00364852 -18.28943259 81.00338821 -18 86 C-8.1 86 1.8 86 12 86 C12 95.9 12 105.8 12 116 C2.1 116 -7.8 116 -18 116 C-18 125.9 -18 135.8 -18 146 C-23.28 146 -28.56 146 -34 146 C-34.18540561 131.51812934 -34.32753146 117.03654126 -34.41449738 102.55372524 C-34.45570202 95.82861804 -34.51184833 89.10426299 -34.60351562 82.37963867 C-34.69047516 75.88918649 -34.73828238 69.39951526 -34.75901794 62.90852547 C-34.77379352 60.43290982 -34.80264772 57.95733667 -34.84584045 55.48205376 C-34.90397346 52.01240773 -34.91191053 48.54598285 -34.90820312 45.07592773 C-34.93696533 44.05381195 -34.96572754 43.03169617 -34.99536133 41.97860718 C-34.94807214 37.88490956 -34.90878036 35.11968478 -32.26999569 31.86850643 C-30.25532961 30.09807438 -28.18526845 28.55117384 -26 27 C-24.91805165 26.00146743 -23.85157175 24.98545872 -22.81274414 23.94213867 C-22.31605728 23.44860397 -21.81937042 22.95506927 -21.30763245 22.44657898 C-20.8052153 21.9421376 -20.30279816 21.43769623 -19.78515625 20.91796875 C-19.24394638 20.37771561 -18.70273651 19.83746246 -18.14512634 19.28083801 C-17.01894541 18.15532971 -15.89399439 17.02858943 -14.77026367 15.90063477 C-13.04525287 14.17019863 -11.31487572 12.4452551 -9.58398438 10.72070312 C-8.48405367 9.62011271 -7.38443262 8.51921272 -6.28515625 7.41796875 C-5.76856949 6.90340622 -5.25198273 6.38884369 -4.71974182 5.85868835 C-2.0237081 3.18266241 -2.0237081 3.18266241 0 0 Z " fill="#EBE3ED" transform="translate(184,125)"/>
<path d="M0 0 C4.95 0 9.9 0 15 0 C15 14.85 15 29.7 15 45 C25.23 45 35.46 45 46 45 C46 54.9 46 64.8 46 75 C30.82 75 15.64 75 0 75 C0 50.25 0 25.5 0 0 Z " fill="#EBE3EE" transform="translate(361,196)"/>
<path d="M0 0 C14.52 0 29.04 0 44 0 C44 24.42 44 48.84 44 74 C39.05 74 34.1 74 29 74 C29 59.15 29 44.3 29 29 C19.43 29 9.86 29 0 29 C0 19.43 0 9.86 0 0 Z " fill="#FDF2F1" transform="translate(317,362)"/>
<path d="M0 0 C1.50606515 3.01213029 1.12160331 6.11282622 1.09765625 9.4140625 C1.0962413 10.14370209 1.09482635 10.87334167 1.09336853 11.62509155 C1.08776531 13.95843585 1.07521235 16.29168464 1.0625 18.625 C1.05748541 20.20572778 1.05292243 21.78645707 1.04882812 23.3671875 C1.03779484 27.24482854 1.02052811 31.12239807 1 35 C-5.74658005 37.89816878 -12.43205616 40.6788786 -19.5 42.6875 C-20.5820874 42.99929199 -20.5820874 42.99929199 -21.68603516 43.31738281 C-34.31804033 46.8607459 -46.91322885 48 -60 48 C-60 37.77 -60 27.54 -60 17 C-55.545 16.62875 -55.545 16.62875 -51 16.25 C-38.18049182 15.02188986 -26.39917104 12.08524007 -14.375 7.5 C-13.25520752 7.07328003 -13.25520752 7.07328003 -12.11279297 6.63793945 C-7.66232754 4.86613514 -3.89010888 2.7979332 0 0 Z " fill="#FBBC00" transform="translate(211,299)"/>
<path d="M0 0 C6.21029673 0 7.44462468 0.25446918 12 4 C15.42037962 7.87643023 15.45115311 11.66694551 15.2890625 16.6328125 C14.9080086 19.75333501 13.99367191 21.57911268 12 24 C11.443125 24.7425 10.88625 25.485 10.3125 26.25 C8 28 8 28 0 29 C0 19.43 0 9.86 0 0 Z " fill="#FC9103" transform="translate(361,332)"/>
<path d="M0 0 C0 9.9 0 19.8 0 30 C-6.50659063 28.91556823 -8.70531037 27.62244226 -13 23 C-15.44351683 19.23291156 -15.27594591 15.61646508 -14.67578125 11.28515625 C-13.31029858 6.66777265 -10.10934268 3.28927759 -6.05078125 0.80859375 C-4 0 -4 0 0 0 Z " fill="#FBBE05" transform="translate(361,271)"/>
</svg>
